<svg width="133" height="73" viewBox="0 0 133 73" fill="none" xmlns="http://www.w3.org/2000/svg">
<path d="M4.47958 28V8.36364H10.552V11.9432H10.7566C11.1145 10.6477 11.6983 9.68466 12.508 9.05398C13.3176 8.41477 14.2594 8.09517 15.3333 8.09517C15.623 8.09517 15.9213 8.11648 16.2282 8.15909C16.535 8.19318 16.8205 8.24858 17.0847 8.32528V13.7585C16.7864 13.6562 16.3944 13.5753 15.9086 13.5156C15.4313 13.456 15.0051 13.4261 14.6301 13.4261C13.8887 13.4261 13.2196 13.5923 12.623 13.9247C12.035 14.2486 11.5705 14.7045 11.2296 15.2926C10.8972 15.8722 10.731 16.554 10.731 17.3381V28H4.47958ZM19.6319 28V8.36364H25.8833V28H19.6319ZM22.764 6.07528C21.8862 6.07528 21.1319 5.78551 20.5012 5.20597C19.8706 4.6179 19.5552 3.91051 19.5552 3.08381C19.5552 2.26562 19.8706 1.56676 20.5012 0.987216C21.1319 0.399147 21.8862 0.105112 22.764 0.105112C23.6504 0.105112 24.4047 0.399147 25.0268 0.987216C25.6575 1.56676 25.9728 2.26562 25.9728 3.08381C25.9728 3.91051 25.6575 4.6179 25.0268 5.20597C24.4047 5.78551 23.6504 6.07528 22.764 6.07528ZM39.0286 28.3707C36.9576 28.3707 35.1806 27.9446 33.6976 27.0923C32.2232 26.2401 31.0897 25.0554 30.2971 23.5384C29.5044 22.0128 29.1081 20.2486 29.1081 18.2457C29.1081 16.2344 29.5044 14.4702 30.2971 12.9531C31.0982 11.4276 32.236 10.2386 33.7104 9.38636C35.1934 8.53409 36.9618 8.10795 39.0158 8.10795C40.8311 8.10795 42.4121 8.43608 43.7587 9.09233C45.1138 9.74858 46.1706 10.6776 46.9292 11.8793C47.6962 13.0724 48.101 14.4744 48.1436 16.0852H42.3013C42.182 15.0795 41.8411 14.2912 41.2786 13.7202C40.7246 13.1491 40.0002 12.8636 39.1053 12.8636C38.3809 12.8636 37.7459 13.0682 37.2005 13.4773C36.655 13.8778 36.2289 14.4744 35.9221 15.267C35.6238 16.0511 35.4746 17.0227 35.4746 18.1818C35.4746 19.3409 35.6238 20.321 35.9221 21.1222C36.2289 21.9148 36.655 22.5156 37.2005 22.9247C37.7459 23.3253 38.3809 23.5256 39.1053 23.5256C39.6848 23.5256 40.1962 23.402 40.6394 23.1548C41.0911 22.9077 41.4618 22.5455 41.7516 22.0682C42.0414 21.5824 42.2246 20.9943 42.3013 20.304H48.1436C48.084 21.9233 47.6792 23.3381 46.9292 24.5483C46.1877 25.7585 45.1436 26.7003 43.7971 27.3736C42.459 28.0384 40.8695 28.3707 39.0286 28.3707ZM57.5943 16.8011V28H51.3429V1.81818H57.3897V11.9688H57.6071C58.0502 10.7585 58.7747 9.8125 59.7804 9.13068C60.7946 8.44886 62.0346 8.10795 63.5005 8.10795C64.8812 8.10795 66.0829 8.41477 67.1056 9.02841C68.1284 9.63352 68.921 10.4901 69.4835 11.598C70.0545 12.706 70.3358 14.0014 70.3272 15.4844V28H64.0758V16.7116C64.0843 15.6207 63.8116 14.7685 63.2576 14.1548C62.7037 13.5412 61.9238 13.2344 60.9181 13.2344C60.2619 13.2344 59.6824 13.3793 59.1795 13.669C58.6852 13.9503 58.2974 14.3551 58.0162 14.8835C57.7434 15.4119 57.6028 16.0511 57.5943 16.8011ZM79.7651 28.3324C78.5123 28.3324 77.4 28.1236 76.4284 27.706C75.4654 27.2798 74.7026 26.6406 74.1401 25.7884C73.5861 24.9276 73.3091 23.8494 73.3091 22.554C73.3091 21.4631 73.5009 20.5426 73.8844 19.7926C74.2679 19.0426 74.7963 18.4332 75.4696 17.9645C76.1429 17.4957 76.9185 17.142 77.7963 16.9034C78.6742 16.6562 79.6117 16.4901 80.6088 16.4048C81.7253 16.3026 82.6245 16.196 83.3063 16.0852C83.9881 15.9659 84.4824 15.7997 84.7892 15.5866C85.1046 15.3651 85.2623 15.054 85.2623 14.6534V14.5895C85.2623 13.9332 85.0364 13.4261 84.5847 13.0682C84.133 12.7102 83.5236 12.5312 82.7566 12.5312C81.9299 12.5312 81.2651 12.7102 80.7623 13.0682C80.2594 13.4261 79.9398 13.9205 79.8034 14.5511L74.0378 14.3466C74.2083 13.1534 74.6472 12.0881 75.3546 11.1506C76.0705 10.2045 77.0506 9.46307 78.2949 8.92614C79.5478 8.38068 81.052 8.10795 82.8077 8.10795C84.0605 8.10795 85.2154 8.2571 86.2722 8.5554C87.329 8.84517 88.2495 9.27131 89.0336 9.83381C89.8176 10.3878 90.4228 11.0696 90.8489 11.8793C91.2836 12.6889 91.5009 13.6136 91.5009 14.6534V28H85.6202V25.2642H85.4668C85.1174 25.929 84.6699 26.4915 84.1245 26.9517C83.5875 27.4119 82.9526 27.7571 82.2196 27.9872C81.4952 28.2173 80.677 28.3324 79.7651 28.3324ZM81.6955 24.2415C82.3688 24.2415 82.9739 24.1051 83.5108 23.8324C84.0563 23.5597 84.4909 23.1847 84.8148 22.7074C85.1387 22.2216 85.3006 21.6591 85.3006 21.0199V19.1534C85.1216 19.2472 84.9043 19.3324 84.6486 19.4091C84.4015 19.4858 84.1287 19.5582 83.8304 19.6264C83.5321 19.6946 83.2253 19.7543 82.91 19.8054C82.5946 19.8565 82.2921 19.9034 82.0023 19.946C81.4142 20.0398 80.9114 20.1847 80.4938 20.3807C80.0847 20.5767 79.7694 20.8324 79.5478 21.1477C79.3347 21.4545 79.2282 21.821 79.2282 22.2472C79.2282 22.8949 79.4583 23.3892 79.9185 23.7301C80.3873 24.071 80.9796 24.2415 81.6955 24.2415ZM95.3233 28V8.36364H101.396V11.9432H101.6C101.958 10.6477 102.542 9.68466 103.352 9.05398C104.161 8.41477 105.103 8.09517 106.177 8.09517C106.467 8.09517 106.765 8.11648 107.072 8.15909C107.379 8.19318 107.664 8.24858 107.928 8.32528V13.7585C107.63 13.6562 107.238 13.5753 106.752 13.5156C106.275 13.456 105.849 13.4261 105.474 13.4261C104.732 13.4261 104.063 13.5923 103.467 13.9247C102.879 14.2486 102.414 14.7045 102.073 15.2926C101.741 15.8722 101.575 16.554 101.575 17.3381V28H95.3233ZM116.628 28.2812C115.179 28.2812 113.862 27.9062 112.678 27.1562C111.493 26.4062 110.547 25.2812 109.84 23.7812C109.132 22.2812 108.779 20.419 108.779 18.1946C108.779 15.8849 109.145 13.9844 109.878 12.4929C110.611 11.0014 111.57 9.89773 112.754 9.18182C113.948 8.46591 115.23 8.10795 116.602 8.10795C117.634 8.10795 118.516 8.28693 119.249 8.64489C119.982 8.99432 120.587 9.44602 121.064 10C121.541 10.554 121.904 11.1293 122.151 11.7259H122.279V1.81818H128.53V28H122.343V24.8168H122.151C121.887 25.4219 121.512 25.9886 121.026 26.517C120.54 27.0455 119.931 27.4716 119.198 27.7955C118.473 28.1193 117.617 28.2812 116.628 28.2812ZM118.801 23.4105C119.56 23.4105 120.208 23.1974 120.744 22.7713C121.281 22.3366 121.695 21.7273 121.985 20.9432C122.274 20.1591 122.419 19.2386 122.419 18.1818C122.419 17.108 122.274 16.1832 121.985 15.4077C121.703 14.6321 121.29 14.0355 120.744 13.6179C120.208 13.2003 119.56 12.9915 118.801 12.9915C118.026 12.9915 117.369 13.2045 116.833 13.6307C116.296 14.0568 115.887 14.6577 115.605 15.4332C115.333 16.2088 115.196 17.125 115.196 18.1818C115.196 19.2386 115.337 20.1591 115.618 20.9432C115.899 21.7273 116.304 22.3366 116.833 22.7713C117.369 23.1974 118.026 23.4105 118.801 23.4105ZM14.1843 56.5952L12.7397 56.9787C12.5096 56.2628 12.1815 55.6449 11.7553 55.125C11.3292 54.6051 10.7923 54.2045 10.1445 53.9233C9.50533 53.6335 8.73828 53.4886 7.8434 53.4886C6.40305 53.4886 5.22266 53.8466 4.3022 54.5625C3.39027 55.2784 2.9343 56.2116 2.9343 57.3622C2.9343 58.2997 3.24538 59.0753 3.86754 59.6889C4.4897 60.294 5.43999 60.7543 6.71839 61.0696L9.73544 61.8239C11.2866 62.2074 12.4542 62.8295 13.2383 63.6903C14.0224 64.5426 14.4144 65.6037 14.4144 66.8736C14.4144 67.956 14.1204 68.9148 13.5323 69.75C12.9442 70.5852 12.1303 71.2372 11.0906 71.706C10.0593 72.1747 8.8576 72.4091 7.48544 72.4091C5.65305 72.4091 4.14879 71.983 2.97266 71.1307C1.79652 70.2699 1.04226 69.0384 0.709872 67.4361L2.20561 67.0526C2.48686 68.331 3.07067 69.3068 3.95703 69.9801C4.85192 70.6449 6.02379 70.9773 7.47266 70.9773C9.07493 70.9773 10.3661 70.598 11.3462 69.8395C12.3349 69.081 12.8292 68.1094 12.8292 66.9247C12.8292 66.0213 12.5394 65.2585 11.9599 64.6364C11.3803 64.0142 10.5025 63.5582 9.32635 63.2685L6.19425 62.5014C4.59197 62.1094 3.39027 61.483 2.58913 60.6222C1.788 59.7528 1.38743 58.6832 1.38743 57.4134C1.38743 56.3565 1.66442 55.4276 2.21839 54.6264C2.77237 53.8253 3.53516 53.1989 4.50675 52.7472C5.47834 52.2955 6.59055 52.0696 7.8434 52.0696C9.50533 52.0696 10.8604 52.4616 11.9087 53.2457C12.957 54.0298 13.7156 55.1463 14.1843 56.5952ZM32.392 65.0327V52.3636H33.9517V72H32.392V68.8168H32.2642C31.804 69.831 31.0582 70.6577 30.027 71.2969C29.0043 71.9361 27.794 72.2557 26.3963 72.2557C25.1094 72.2557 23.9716 71.9744 22.983 71.4119C21.9943 70.8494 21.2188 70.0526 20.6562 69.0213C20.0938 67.9815 19.8125 66.7457 19.8125 65.3139V52.3636H21.3722V65.25C21.3722 66.8864 21.8665 68.2116 22.8551 69.2259C23.8523 70.2315 25.1392 70.7344 26.7159 70.7344C27.7386 70.7344 28.6804 70.5043 29.5412 70.044C30.402 69.5838 31.0923 68.9276 31.6122 68.0753C32.1321 67.2145 32.392 66.2003 32.392 65.0327ZM41.9737 45.8182V72H40.4141V45.8182H41.9737ZM48.5064 72V52.3636H50.0533V72H48.5064ZM49.2862 48.8864C48.9453 48.8864 48.647 48.767 48.3913 48.5284C48.1442 48.2898 48.0206 48 48.0206 47.6591C48.0206 47.3182 48.1442 47.0284 48.3913 46.7898C48.6385 46.5511 48.9368 46.4318 49.2862 46.4318C49.6271 46.4318 49.9212 46.5511 50.1683 46.7898C50.424 47.0284 50.5518 47.3182 50.5518 47.6591C50.5518 48 50.4283 48.2898 50.1811 48.5284C49.9339 48.767 49.6357 48.8864 49.2862 48.8864ZM69.0632 56.5952L67.6186 56.9787C67.3885 56.2628 67.0604 55.6449 66.6342 55.125C66.2081 54.6051 65.6712 54.2045 65.0234 53.9233C64.3842 53.6335 63.6172 53.4886 62.7223 53.4886C61.282 53.4886 60.1016 53.8466 59.1811 54.5625C58.2692 55.2784 57.8132 56.2116 57.8132 57.3622C57.8132 58.2997 58.1243 59.0753 58.7464 59.6889C59.3686 60.294 60.3189 60.7543 61.5973 61.0696L64.6143 61.8239C66.1655 62.2074 67.3331 62.8295 68.1172 63.6903C68.9013 64.5426 69.2933 65.6037 69.2933 66.8736C69.2933 67.956 68.9993 68.9148 68.4112 69.75C67.8232 70.5852 67.0092 71.2372 65.9695 71.706C64.9382 72.1747 63.7365 72.4091 62.3643 72.4091C60.532 72.4091 59.0277 71.983 57.8516 71.1307C56.6754 70.2699 55.9212 69.0384 55.5888 67.4361L57.0845 67.0526C57.3658 68.331 57.9496 69.3068 58.8359 69.9801C59.7308 70.6449 60.9027 70.9773 62.3516 70.9773C63.9538 70.9773 65.245 70.598 66.2251 69.8395C67.2138 69.081 67.7081 68.1094 67.7081 66.9247C67.7081 66.0213 67.4183 65.2585 66.8388 64.6364C66.2592 64.0142 65.3814 63.5582 64.2053 63.2685L61.0732 62.5014C59.4709 62.1094 58.2692 61.483 57.468 60.6222C56.6669 59.7528 56.2663 58.6832 56.2663 57.4134C56.2663 56.3565 56.5433 55.4276 57.0973 54.6264C57.6513 53.8253 58.4141 53.1989 59.3857 52.7472C60.3572 52.2955 61.4695 52.0696 62.7223 52.0696C64.3842 52.0696 65.7393 52.4616 66.7876 53.2457C67.8359 54.0298 68.5945 55.1463 69.0632 56.5952ZM81.6332 52.3636V53.7571H73.055V52.3636H81.6332ZM75.957 47.6591H77.5039V67.3594C77.5039 68.1605 77.6573 68.8168 77.9641 69.3281C78.2795 69.831 78.6886 70.206 79.1914 70.4531C79.7028 70.6918 80.2482 70.8111 80.8278 70.8111C81.109 70.8111 81.3519 70.7898 81.5565 70.7472C81.7695 70.7045 81.9698 70.6491 82.1573 70.581L82.5408 72C82.3022 72.0852 82.038 72.1577 81.7482 72.2173C81.4585 72.2855 81.1175 72.3196 80.7255 72.3196C79.9073 72.3196 79.1317 72.1364 78.3988 71.7699C77.6744 71.4034 77.0863 70.8707 76.6346 70.1719C76.1829 69.473 75.957 68.6293 75.957 67.6406V47.6591ZM89.3995 59.267V72H87.8398V45.8182H89.3995V55.4702H89.5529C90.0131 54.4474 90.7461 53.6335 91.7518 53.0284C92.766 52.4148 93.9805 52.108 95.3952 52.108C96.7163 52.108 97.8796 52.3892 98.8853 52.9517C99.891 53.5057 100.675 54.3026 101.238 55.3423C101.809 56.3736 102.094 57.6094 102.094 59.0497V72H100.547V59.1136C100.547 57.4347 100.049 56.0881 99.0515 55.0739C98.0543 54.0597 96.7376 53.5526 95.1012 53.5526C94.0018 53.5526 93.0217 53.7912 92.1609 54.2685C91.3001 54.7457 90.6225 55.4148 90.1282 56.2756C89.6424 57.1278 89.3995 58.125 89.3995 59.267ZM108.624 72V52.3636H110.17V72H108.624ZM109.403 48.8864C109.063 48.8864 108.764 48.767 108.509 48.5284C108.261 48.2898 108.138 48 108.138 47.6591C108.138 47.3182 108.261 47.0284 108.509 46.7898C108.756 46.5511 109.054 46.4318 109.403 46.4318C109.744 46.4318 110.038 46.5511 110.286 46.7898C110.541 47.0284 110.669 47.3182 110.669 47.6591C110.669 48 110.545 48.2898 110.298 48.5284C110.051 48.767 109.753 48.8864 109.403 48.8864ZM124.003 72.4091C122.384 72.4091 120.943 71.9744 119.682 71.1051C118.42 70.2273 117.428 69.0213 116.703 67.4872C115.979 65.9531 115.616 64.206 115.616 62.2457C115.616 60.277 115.979 58.5298 116.703 57.0043C117.428 55.4702 118.42 54.2642 119.682 53.3864C120.943 52.5085 122.384 52.0696 124.003 52.0696C125.622 52.0696 127.063 52.5085 128.324 53.3864C129.585 54.2642 130.578 55.4702 131.303 57.0043C132.027 58.5384 132.389 60.2855 132.389 62.2457C132.389 64.206 132.027 65.9531 131.303 67.4872C130.578 69.0213 129.585 70.2273 128.324 71.1051C127.063 71.9744 125.622 72.4091 124.003 72.4091ZM124.003 70.9645C125.375 70.9645 126.572 70.5767 127.595 69.8011C128.626 69.0256 129.423 67.9773 129.986 66.6562C130.557 65.3352 130.842 63.8651 130.842 62.2457C130.842 60.6264 130.557 59.1605 129.986 57.848C129.415 56.527 128.618 55.4787 127.595 54.7031C126.572 53.919 125.375 53.527 124.003 53.527C122.631 53.527 121.433 53.919 120.411 54.7031C119.388 55.4787 118.591 56.527 118.02 57.848C117.449 59.1605 117.163 60.6264 117.163 62.2457C117.163 63.8651 117.445 65.3352 118.007 66.6562C118.578 67.9773 119.375 69.0256 120.398 69.8011C121.429 70.5767 122.631 70.9645 124.003 70.9645Z" fill="#F4F4F4"/>
</svg>
