<svg width="133" height="73" viewBox="0 0 133 73" fill="none" xmlns="http://www.w3.org/2000/svg">
<path d="M0.981534 28V8.36364H7.05398V11.9432H7.25852C7.61648 10.6477 8.20028 9.68466 9.00994 9.05398C9.8196 8.41477 10.7614 8.09517 11.8352 8.09517C12.125 8.09517 12.4233 8.11648 12.7301 8.15909C13.0369 8.19318 13.3224 8.24858 13.5866 8.32528V13.7585C13.2884 13.6562 12.8963 13.5753 12.4105 13.5156C11.9332 13.456 11.5071 13.4261 11.1321 13.4261C10.3906 13.4261 9.72159 13.5923 9.125 13.9247C8.53693 14.2486 8.07244 14.7045 7.73153 15.2926C7.39915 15.8722 7.23295 16.554 7.23295 17.3381V28H0.981534ZM16.1339 28V8.36364H22.3853V28H16.1339ZM19.266 6.07528C18.3881 6.07528 17.6339 5.78551 17.0032 5.20597C16.3725 4.6179 16.0572 3.91051 16.0572 3.08381C16.0572 2.26562 16.3725 1.56676 17.0032 0.987216C17.6339 0.399147 18.3881 0.105112 19.266 0.105112C20.1523 0.105112 20.9066 0.399147 21.5288 0.987216C22.1594 1.56676 22.4748 2.26562 22.4748 3.08381C22.4748 3.91051 22.1594 4.6179 21.5288 5.20597C20.9066 5.78551 20.1523 6.07528 19.266 6.07528ZM35.5305 28.3707C33.4595 28.3707 31.6825 27.9446 30.1996 27.0923C28.7251 26.2401 27.5916 25.0554 26.799 23.5384C26.0064 22.0128 25.6101 20.2486 25.6101 18.2457C25.6101 16.2344 26.0064 14.4702 26.799 12.9531C27.6001 11.4276 28.7379 10.2386 30.2124 9.38636C31.6953 8.53409 33.4638 8.10795 35.5178 8.10795C37.3331 8.10795 38.9141 8.43608 40.2607 9.09233C41.6158 9.74858 42.6726 10.6776 43.4311 11.8793C44.1982 13.0724 44.603 14.4744 44.6456 16.0852H38.8033C38.6839 15.0795 38.343 14.2912 37.7805 13.7202C37.2266 13.1491 36.5021 12.8636 35.6072 12.8636C34.8828 12.8636 34.2479 13.0682 33.7024 13.4773C33.157 13.8778 32.7308 14.4744 32.424 15.267C32.1257 16.0511 31.9766 17.0227 31.9766 18.1818C31.9766 19.3409 32.1257 20.321 32.424 21.1222C32.7308 21.9148 33.157 22.5156 33.7024 22.9247C34.2479 23.3253 34.8828 23.5256 35.6072 23.5256C36.1868 23.5256 36.6982 23.402 37.1413 23.1548C37.593 22.9077 37.9638 22.5455 38.2536 22.0682C38.5433 21.5824 38.7266 20.9943 38.8033 20.304H44.6456C44.5859 21.9233 44.1811 23.3381 43.4311 24.5483C42.6896 25.7585 41.6456 26.7003 40.299 27.3736C38.9609 28.0384 37.3714 28.3707 35.5305 28.3707ZM54.0962 16.8011V28H47.8448V1.81818H53.8917V11.9688H54.109C54.5522 10.7585 55.2766 9.8125 56.2823 9.13068C57.2965 8.44886 58.5366 8.10795 60.0025 8.10795C61.3832 8.10795 62.5849 8.41477 63.6076 9.02841C64.6303 9.63352 65.4229 10.4901 65.9854 11.598C66.5565 12.706 66.8377 14.0014 66.8292 15.4844V28H60.5778V16.7116C60.5863 15.6207 60.3136 14.7685 59.7596 14.1548C59.2056 13.5412 58.4258 13.2344 57.4201 13.2344C56.7639 13.2344 56.1843 13.3793 55.6815 13.669C55.1871 13.9503 54.7994 14.3551 54.5181 14.8835C54.2454 15.4119 54.1048 16.0511 54.0962 16.8011ZM76.267 28.3324C75.0142 28.3324 73.902 28.1236 72.9304 27.706C71.9673 27.2798 71.2045 26.6406 70.642 25.7884C70.0881 24.9276 69.8111 23.8494 69.8111 22.554C69.8111 21.4631 70.0028 20.5426 70.3864 19.7926C70.7699 19.0426 71.2983 18.4332 71.9716 17.9645C72.6449 17.4957 73.4205 17.142 74.2983 16.9034C75.1761 16.6562 76.1136 16.4901 77.1108 16.4048C78.2273 16.3026 79.1264 16.196 79.8082 16.0852C80.4901 15.9659 80.9844 15.7997 81.2912 15.5866C81.6065 15.3651 81.7642 15.054 81.7642 14.6534V14.5895C81.7642 13.9332 81.5384 13.4261 81.0866 13.0682C80.6349 12.7102 80.0256 12.5312 79.2585 12.5312C78.4318 12.5312 77.767 12.7102 77.2642 13.0682C76.7614 13.4261 76.4418 13.9205 76.3054 14.5511L70.5398 14.3466C70.7102 13.1534 71.1491 12.0881 71.8565 11.1506C72.5724 10.2045 73.5526 9.46307 74.7969 8.92614C76.0497 8.38068 77.554 8.10795 79.3097 8.10795C80.5625 8.10795 81.7173 8.2571 82.7741 8.5554C83.831 8.84517 84.7514 9.27131 85.5355 9.83381C86.3196 10.3878 86.9247 11.0696 87.3509 11.8793C87.7855 12.6889 88.0028 13.6136 88.0028 14.6534V28H82.1222V25.2642H81.9688C81.6193 25.929 81.1719 26.4915 80.6264 26.9517C80.0895 27.4119 79.4545 27.7571 78.7216 27.9872C77.9972 28.2173 77.179 28.3324 76.267 28.3324ZM78.1974 24.2415C78.8707 24.2415 79.4759 24.1051 80.0128 23.8324C80.5582 23.5597 80.9929 23.1847 81.3168 22.7074C81.6406 22.2216 81.8026 21.6591 81.8026 21.0199V19.1534C81.6236 19.2472 81.4063 19.3324 81.1506 19.4091C80.9034 19.4858 80.6307 19.5582 80.3324 19.6264C80.0341 19.6946 79.7273 19.7543 79.4119 19.8054C79.0966 19.8565 78.794 19.9034 78.5043 19.946C77.9162 20.0398 77.4134 20.1847 76.9957 20.3807C76.5866 20.5767 76.2713 20.8324 76.0497 21.1477C75.8366 21.4545 75.7301 21.821 75.7301 22.2472C75.7301 22.8949 75.9602 23.3892 76.4205 23.7301C76.8892 24.071 77.4815 24.2415 78.1974 24.2415ZM91.8253 28V8.36364H97.8977V11.9432H98.1023C98.4602 10.6477 99.044 9.68466 99.8537 9.05398C100.663 8.41477 101.605 8.09517 102.679 8.09517C102.969 8.09517 103.267 8.11648 103.574 8.15909C103.881 8.19318 104.166 8.24858 104.43 8.32528V13.7585C104.132 13.6562 103.74 13.5753 103.254 13.5156C102.777 13.456 102.351 13.4261 101.976 13.4261C101.234 13.4261 100.565 13.5923 99.9688 13.9247C99.3807 14.2486 98.9162 14.7045 98.5753 15.2926C98.2429 15.8722 98.0767 16.554 98.0767 17.3381V28H91.8253ZM113.13 28.2812C111.681 28.2812 110.364 27.9062 109.18 27.1562C107.995 26.4062 107.049 25.2812 106.342 23.7812C105.634 22.2812 105.281 20.419 105.281 18.1946C105.281 15.8849 105.647 13.9844 106.38 12.4929C107.113 11.0014 108.072 9.89773 109.256 9.18182C110.45 8.46591 111.732 8.10795 113.104 8.10795C114.136 8.10795 115.018 8.28693 115.751 8.64489C116.484 8.99432 117.089 9.44602 117.566 10C118.043 10.554 118.406 11.1293 118.653 11.7259H118.781V1.81818H125.032V28H118.844V24.8168H118.653C118.388 25.4219 118.013 25.9886 117.528 26.517C117.042 27.0455 116.433 27.4716 115.7 27.7955C114.975 28.1193 114.119 28.2812 113.13 28.2812ZM115.303 23.4105C116.062 23.4105 116.71 23.1974 117.246 22.7713C117.783 22.3366 118.197 21.7273 118.487 20.9432C118.776 20.1591 118.921 19.2386 118.921 18.1818C118.921 17.108 118.776 16.1832 118.487 15.4077C118.205 14.6321 117.792 14.0355 117.246 13.6179C116.71 13.2003 116.062 12.9915 115.303 12.9915C114.528 12.9915 113.871 13.2045 113.335 13.6307C112.798 14.0568 112.388 14.6577 112.107 15.4332C111.835 16.2088 111.698 17.125 111.698 18.1818C111.698 19.2386 111.839 20.1591 112.12 20.9432C112.401 21.7273 112.806 22.3366 113.335 22.7713C113.871 23.1974 114.528 23.4105 115.303 23.4105ZM14.7116 56.5952L13.267 56.9787C13.0369 56.2628 12.7088 55.6449 12.2827 55.125C11.8565 54.6051 11.3196 54.2045 10.6719 53.9233C10.0327 53.6335 9.26563 53.4886 8.37074 53.4886C6.9304 53.4886 5.75 53.8466 4.82955 54.5625C3.91761 55.2784 3.46165 56.2116 3.46165 57.3622C3.46165 58.2997 3.77273 59.0753 4.39489 59.6889C5.01705 60.294 5.96733 60.7543 7.24574 61.0696L10.2628 61.8239C11.8139 62.2074 12.9815 62.8295 13.7656 63.6903C14.5497 64.5426 14.9418 65.6037 14.9418 66.8736C14.9418 67.956 14.6477 68.9148 14.0597 69.75C13.4716 70.5852 12.6577 71.2372 11.6179 71.706C10.5866 72.1747 9.38494 72.4091 8.01278 72.4091C6.1804 72.4091 4.67614 71.983 3.5 71.1307C2.32386 70.2699 1.5696 69.0384 1.23722 67.4361L2.73295 67.0526C3.0142 68.331 3.59801 69.3068 4.48438 69.9801C5.37926 70.6449 6.55114 70.9773 8 70.9773C9.60227 70.9773 10.8935 70.598 11.8736 69.8395C12.8622 69.081 13.3565 68.1094 13.3565 66.9247C13.3565 66.0213 13.0668 65.2585 12.4872 64.6364C11.9077 64.0142 11.0298 63.5582 9.85369 63.2685L6.72159 62.5014C5.11932 62.1094 3.91761 61.483 3.11648 60.6222C2.31534 59.7528 1.91477 58.6832 1.91477 57.4134C1.91477 56.3565 2.19176 55.4276 2.74574 54.6264C3.29972 53.8253 4.0625 53.1989 5.03409 52.7472C6.00568 52.2955 7.1179 52.0696 8.37074 52.0696C10.0327 52.0696 11.3878 52.4616 12.4361 53.2457C13.4844 54.0298 14.2429 55.1463 14.7116 56.5952ZM32.9194 65.0327V52.3636H34.479V72H32.9194V68.8168H32.7915C32.3313 69.831 31.5856 70.6577 30.5543 71.2969C29.5316 71.9361 28.3214 72.2557 26.9237 72.2557C25.6367 72.2557 24.4989 71.9744 23.5103 71.4119C22.5217 70.8494 21.7461 70.0526 21.1836 69.0213C20.6211 67.9815 20.3398 66.7457 20.3398 65.3139V52.3636H21.8995V65.25C21.8995 66.8864 22.3938 68.2116 23.3825 69.2259C24.3796 70.2315 25.6665 70.7344 27.2433 70.7344C28.266 70.7344 29.2077 70.5043 30.0685 70.044C30.9293 69.5838 31.6197 68.9276 32.1396 68.0753C32.6594 67.2145 32.9194 66.2003 32.9194 65.0327ZM42.5011 45.8182V72H40.9414V45.8182H42.5011ZM49.0337 72V52.3636H50.5806V72H49.0337ZM49.8136 48.8864C49.4727 48.8864 49.1744 48.767 48.9187 48.5284C48.6715 48.2898 48.5479 48 48.5479 47.6591C48.5479 47.3182 48.6715 47.0284 48.9187 46.7898C49.1658 46.5511 49.4641 46.4318 49.8136 46.4318C50.1545 46.4318 50.4485 46.5511 50.6957 46.7898C50.9513 47.0284 51.0792 47.3182 51.0792 47.6591C51.0792 48 50.9556 48.2898 50.7085 48.5284C50.4613 48.767 50.163 48.8864 49.8136 48.8864ZM69.5906 56.5952L68.146 56.9787C67.9158 56.2628 67.5877 55.6449 67.1616 55.125C66.7354 54.6051 66.1985 54.2045 65.5508 53.9233C64.9116 53.6335 64.1445 53.4886 63.2496 53.4886C61.8093 53.4886 60.6289 53.8466 59.7085 54.5625C58.7965 55.2784 58.3406 56.2116 58.3406 57.3622C58.3406 58.2997 58.6516 59.0753 59.2738 59.6889C59.896 60.294 60.8462 60.7543 62.1246 61.0696L65.1417 61.8239C66.6928 62.2074 67.8604 62.8295 68.6445 63.6903C69.4286 64.5426 69.8207 65.6037 69.8207 66.8736C69.8207 67.956 69.5266 68.9148 68.9386 69.75C68.3505 70.5852 67.5366 71.2372 66.4968 71.706C65.4656 72.1747 64.2638 72.4091 62.8917 72.4091C61.0593 72.4091 59.555 71.983 58.3789 71.1307C57.2028 70.2699 56.4485 69.0384 56.1161 67.4361L57.6119 67.0526C57.8931 68.331 58.4769 69.3068 59.3633 69.9801C60.2582 70.6449 61.43 70.9773 62.8789 70.9773C64.4812 70.9773 65.7724 70.598 66.7525 69.8395C67.7411 69.081 68.2354 68.1094 68.2354 66.9247C68.2354 66.0213 67.9457 65.2585 67.3661 64.6364C66.7866 64.0142 65.9087 63.5582 64.7326 63.2685L61.6005 62.5014C59.9982 62.1094 58.7965 61.483 57.9954 60.6222C57.1942 59.7528 56.7937 58.6832 56.7937 57.4134C56.7937 56.3565 57.0707 55.4276 57.6246 54.6264C58.1786 53.8253 58.9414 53.1989 59.913 52.7472C60.8846 52.2955 61.9968 52.0696 63.2496 52.0696C64.9116 52.0696 66.2667 52.4616 67.315 53.2457C68.3633 54.0298 69.1218 55.1463 69.5906 56.5952ZM82.1605 52.3636V53.7571H73.5824V52.3636H82.1605ZM76.4844 47.6591H78.0312V67.3594C78.0312 68.1605 78.1847 68.8168 78.4915 69.3281C78.8068 69.831 79.2159 70.206 79.7188 70.4531C80.2301 70.6918 80.7756 70.8111 81.3551 70.8111C81.6364 70.8111 81.8793 70.7898 82.0838 70.7472C82.2969 70.7045 82.4972 70.6491 82.6847 70.581L83.0682 72C82.8295 72.0852 82.5653 72.1577 82.2756 72.2173C81.9858 72.2855 81.6449 72.3196 81.2528 72.3196C80.4347 72.3196 79.6591 72.1364 78.9261 71.7699C78.2017 71.4034 77.6136 70.8707 77.1619 70.1719C76.7102 69.473 76.4844 68.6293 76.4844 67.6406V47.6591ZM89.9268 59.267V72H88.3672V45.8182H89.9268V55.4702H90.0803C90.5405 54.4474 91.2734 53.6335 92.2791 53.0284C93.2933 52.4148 94.5078 52.108 95.9226 52.108C97.2436 52.108 98.407 52.3892 99.4126 52.9517C100.418 53.5057 101.202 54.3026 101.765 55.3423C102.336 56.3736 102.621 57.6094 102.621 59.0497V72H101.075V59.1136C101.075 57.4347 100.576 56.0881 99.5788 55.0739C98.5817 54.0597 97.2649 53.5526 95.6286 53.5526C94.5291 53.5526 93.549 53.7912 92.6882 54.2685C91.8274 54.7457 91.1499 55.4148 90.6555 56.2756C90.1697 57.1278 89.9268 58.125 89.9268 59.267ZM109.151 72V52.3636H110.698V72H109.151ZM109.931 48.8864C109.59 48.8864 109.292 48.767 109.036 48.5284C108.789 48.2898 108.665 48 108.665 47.6591C108.665 47.3182 108.789 47.0284 109.036 46.7898C109.283 46.5511 109.581 46.4318 109.931 46.4318C110.272 46.4318 110.566 46.5511 110.813 46.7898C111.069 47.0284 111.196 47.3182 111.196 47.6591C111.196 48 111.073 48.2898 110.826 48.5284C110.578 48.767 110.28 48.8864 109.931 48.8864ZM124.53 72.4091C122.911 72.4091 121.471 71.9744 120.209 71.1051C118.948 70.2273 117.955 69.0213 117.23 67.4872C116.506 65.9531 116.144 64.206 116.144 62.2457C116.144 60.277 116.506 58.5298 117.23 57.0043C117.955 55.4702 118.948 54.2642 120.209 53.3864C121.471 52.5085 122.911 52.0696 124.53 52.0696C126.15 52.0696 127.59 52.5085 128.851 53.3864C130.113 54.2642 131.105 55.4702 131.83 57.0043C132.554 58.5384 132.917 60.2855 132.917 62.2457C132.917 64.206 132.554 65.9531 131.83 67.4872C131.105 69.0213 130.113 70.2273 128.851 71.1051C127.59 71.9744 126.15 72.4091 124.53 72.4091ZM124.53 70.9645C125.902 70.9645 127.1 70.5767 128.123 69.8011C129.154 69.0256 129.951 67.9773 130.513 66.6562C131.084 65.3352 131.37 63.8651 131.37 62.2457C131.37 60.6264 131.084 59.1605 130.513 57.848C129.942 56.527 129.145 55.4787 128.123 54.7031C127.1 53.919 125.902 53.527 124.53 53.527C123.158 53.527 121.961 53.919 120.938 54.7031C119.915 55.4787 119.118 56.527 118.547 57.848C117.976 59.1605 117.691 60.6264 117.691 62.2457C117.691 63.8651 117.972 65.3352 118.534 66.6562C119.105 67.9773 119.902 69.0256 120.925 69.8011C121.956 70.5767 123.158 70.9645 124.53 70.9645Z" fill="#6833FE"/>
</svg>
